<svg width="3000" height="50" xmlns="http://www.w3.org/2000/svg">
 <!-- Created with Method Draw - http://github.com/duopixel/Method-Draw/ -->

 <g>
  <title>background</title>
  <rect x="-1" y="-1" width="3002" height="52" id="canvas_background" fill="none"/>
 </g>
 <g>
  <title>Layer 1</title>
  <g id="svg_3" stroke="null">
   <path class="st0" d="m837.63917,19.80092c817.44163,-12.50641 890.19464,-14.73671 1444.36052,0.23417l-16,36.0323l-2307.47103,0c0,-17.20768 -171.52887,-46.90362 -171.52887,-64.1113c380.88037,6.189 689.12627,30.43834 1050.63938,27.84483z" id="svg_3" stroke="null" fill-opacity="0"/>
   <g id="svg_6">
    <path class="st0" d="m1030.63917,91.80092c817.44163,-12.50641 890.19464,-14.73671 1444.36052,0.23417l-16,36.0323l-2307.47103,0c0,-17.20768 -171.52887,-46.90362 -171.52887,-64.1113c380.88037,6.189 689.12627,30.43834 1050.63938,27.84483z" id="svg_5" transform="rotate(-180 1227.499755859375,96.01173400878908) " stroke="null" fill-opacity="0" fill="#1d5297"/>
    <g id="svg_10">
     <path class="st0" d="m1030.63917,371.80092c817.44163,-12.50641 890.19464,-14.73671 1444.36052,0.23417l-16,36.0323l-2307.47103,0c0,-17.20768 -171.52887,-46.90362 -171.52887,-64.1113c380.88037,6.189 689.12627,30.43834 1050.63938,27.84483z" id="svg_9" transform="rotate(-180 1227.499755859375,376.01171875000006) " stroke="null" fill="#1d5297"/>
    </g>
    <g stroke="null" id="svg_12">
     <path stroke="null" class="st0" d="m1652.44772,30.48528c-946.5286,13.2867 -1030.77046,15.65615 -1672.4479,-0.24878l18.52665,-38.28041l2671.85722,0c656,-11.71871 414.61599,41.83 414.61599,60.1113c-441.0274,-6.57514 -1013.95021,-24.33744 -1432.55196,-21.58211z" id="svg_11" fill="#1d5297"/>
    </g>
   </g>
  </g>
 </g>
</svg>